<svg id="Layer_1" viewBox="0 0 64 64" xmlns="http://www.w3.org/2000/svg" data-name="Layer 1" width="300" height="300" version="1.1" xmlns:xlink="http://www.w3.org/1999/xlink" xmlns:svgjs="http://svgjs.dev/svgjs"><g width="100%" height="100%" transform="matrix(1,0,0,1,0,0)"><path d="m60.26 4.89-5.69-1.02a2.147 2.147 0 0 0 -1.63.35 2.215 2.215 0 0 0 -.9 1.4l-.89 4.94c-1.85-.21-3.93-.39-6.2-.55a3.008 3.008 0 0 0 -5.858-.285c-4.533-.157-9.63-.157-14.176 0a3.011 3.011 0 0 0 -5.859.292c-2.273.156-4.349.342-6.2.556l-.89-4.95a2.215 2.215 0 0 0 -.9-1.4 2.147 2.147 0 0 0 -1.63-.35l-5.697 1.017a2.176 2.176 0 0 0 -1.4.9 2.147 2.147 0 0 0 -.35 1.63l1.88 10.43a2.139 2.139 0 0 0 .9 1.4 2.188 2.188 0 0 0 1.23.39 2.579 2.579 0 0 0 .39-.04l5.7-1.03a2.167 2.167 0 0 0 1.75-2.52l-.629-3.506c1.7-.193 3.6-.364 5.669-.51l-.555 7.99a1 1 0 0 0 .29.776l6.1 6.1a5 5 0 0 1 1.475 3.559v6.141a9.746 9.746 0 0 1 -1.406 5.041l-1.773 2.929a5.234 5.234 0 0 0 -.753 2.7v9.655a3.247 3.247 0 1 0 6.493 0v-8.725a1.31 1.31 0 0 1 .2-.7l3.049-4.895 3.054 4.9a1.318 1.318 0 0 1 .2.7v8.725a3.247 3.247 0 1 0 6.493 0v-9.662a5.225 5.225 0 0 0 -.754-2.7l-1.773-2.931a9.746 9.746 0 0 1 -1.406-5.037v-6.14a5 5 0 0 1 1.475-3.56l6.1-6.1a1 1 0 0 0 .29-.776l-.556-8c2.07.15 3.97.32 5.67.52l-.63 3.51a2.167 2.167 0 0 0 1.75 2.52l5.7 1.03a2.579 2.579 0 0 0 .39.04 2.188 2.188 0 0 0 1.23-.39 2.139 2.139 0 0 0 .9-1.4l1.877-10.434a2.147 2.147 0 0 0 -.35-1.63 2.176 2.176 0 0 0 -1.4-.9zm-21.219 6.834.509 6.208-5.1 4.837a1.805 1.805 0 0 1 -1.246.5h-2.41a1.805 1.805 0 0 1 -1.246-.5l-5.1-4.837.509-6.208c4.515-.156 9.584-.155 14.084 0zm-1.166 13.759a6.984 6.984 0 0 0 -2.061 4.973v6.144a11.737 11.737 0 0 0 1.7 6.076l1.767 2.924a3.225 3.225 0 0 1 .465 1.667v9.655a1.247 1.247 0 1 1 -2.493 0v-8.722a3.311 3.311 0 0 0 -.5-1.755l-3.9-6.257a1 1 0 0 0 -1.7 0l-3.9 6.257a3.311 3.311 0 0 0 -.5 1.755v8.725a1.247 1.247 0 1 1 -2.493 0v-9.657a3.225 3.225 0 0 1 .465-1.667l1.772-2.929a11.737 11.737 0 0 0 1.7-6.076v-6.14a6.984 6.984 0 0 0 -2.061-4.973l-5.773-5.775.639-9.213a1.031 1.031 0 0 1 1.025-.956 1.029 1.029 0 0 1 1.025 1.111l-.623 7.6a1 1 0 0 0 .308.807l5.445 5.165a3.794 3.794 0 0 0 2.623 1.047h2.412a3.8 3.8 0 0 0 2.623-1.046l5.445-5.166a1 1 0 0 0 .308-.807l-.623-7.6a1.029 1.029 0 0 1 1.025-1.111 1.031 1.031 0 0 1 1.025.956l.639 9.213z" fill="#77894d" fill-opacity="1" data-original-color="#000000ff" stroke="none" stroke-opacity="1"/><path d="m32 21.81a4.732 4.732 0 1 0 -4.731-4.732 4.737 4.737 0 0 0 4.731 4.732zm0-7.463a2.732 2.732 0 1 1 -2.731 2.731 2.734 2.734 0 0 1 2.731-2.731z" fill="#77894d" fill-opacity="1" data-original-color="#000000ff" stroke="none" stroke-opacity="1"/><path d="m18.68 42.56v-6.84h2.16a1 1 0 0 0 .77-1.63l-4.81-5.88a1.028 1.028 0 0 0 -1.55 0l-4.81 5.88a.978.978 0 0 0 -.13 1.06.993.993 0 0 0 .9.57h2.16v6.84a1 1 0 0 0 1 1h3.31a1 1 0 0 0 1-1z" fill="#77894d" fill-opacity="1" data-original-color="#000000ff" stroke="none" stroke-opacity="1"/><path d="m48.75 28.21a1.028 1.028 0 0 0 -1.55 0l-4.81 5.88a1 1 0 0 0 .77 1.63h2.16v6.84a1 1 0 0 0 1 1h3.31a1 1 0 0 0 1-1v-6.84h2.16a.993.993 0 0 0 .9-.57.978.978 0 0 0 -.13-1.06z" fill="#77894d" fill-opacity="1" data-original-color="#000000ff" stroke="none" stroke-opacity="1"/></g></svg>