<svg id="Layer_1" height="300" viewBox="0 0 259.2923 228.4687" width="300" xmlns="http://www.w3.org/2000/svg" version="1.1" xmlns:xlink="http://www.w3.org/1999/xlink" xmlns:svgjs="http://svgjs.dev/svgjs"><g width="100%" height="100%" transform="matrix(1,0,0,1,0,0)"><g><path d="m107.0194 114.3711 1.6287 6.1641-27.5769 18.3036c-3.0137 2-5.0127 5.2075-5.4819 8.7939l-8.3188 63.6138c-.895 6.8452 3.9282 13.1201 10.7739 14.0151.5498.0718 1.0962.1069 1.6362.1069 6.1821-.0005 11.5557-4.5854 12.3789-10.8809l7.5806-57.9683 31.2778-20.7601-7.3721 31.0868c-.98 4.1333.2056 8.481 3.1484 11.5444l44.4219 46.2383c2.4546 2.5547 5.7324 3.8403 9.0156 3.8398 3.1147-.0005 6.2349-1.1577 8.6587-3.4858 4.978-4.7827 5.1367-12.6958.354-17.6743l-39.7012-41.3242 12.1343-51.168c.5585-2.3545.3978-4.7064-.3188-6.8433-.0249-.115-.0424-.23-.0728-.3448l-3.0665-11.6058z" fill="#77894d" fill-opacity="1" data-original-color="#000000ff" stroke="none" stroke-opacity="1"/><path d="m6.792 106.1444 17.896 9.4398c2.9236 1.5422 6.3731 1.7379 9.4523.5362l7.0905-2.7672c.1341-.0523.2726-.086.4077-.1342.2222.9951.6367 1.9644 1.2589 2.8508 1.5571 2.2178 4.0356 3.4033 6.5542 3.4033 1.5879 0 3.1919-.4717 4.5903-1.4531l2.9567-2.0759 12.1039 6.3846 3.8804-7.3565-8.3368-4.3975 20.4417-14.3525c1.0908-.7661 1.9731-1.7925 2.5664-2.9863l8.9978-18.1016 5.0854 19.2463 47.3696-17.0098c-.8979-4.783-3.1206-11.5352-8.5771-17.6511l2.4628-.6736c5.9825 7.1201 8.0159 14.9038 8.6906 19.8437l-51.4297 18.4673c-4.1592 1.4932-6.3193 6.0747-4.8262 10.2329 1.1729 3.2651 4.249 5.2988 7.5293 5.2983.8975 0 1.8105-.1519 2.7031-.4727l57.0273-20.4771c3.0146-1.0825 5.0928-3.8584 5.2832-7.0557.0519-.8799.7526-15.7026-8.4802-30.349-3.6643-5.8129-8.8981-11.5912-16.3594-16.4658-3.9581 4.9053-9.7686 8.3189-16.512 9.0783-.9307.1045-1.873.1577-2.8037.1577-5.3943 0-10.4084-1.7412-14.5013-4.7035l-12.3985 3.276c-.6418.1696-1.2374.4227-1.7915.7319-1.6999.7183-3.1631 2.0192-4.049 3.801l-16.8438 33.8855-23.0883 16.2105c-.5698-1.0898-1.022-2.2473-1.3053-3.4685l-1.72-7.4144c-.7469-3.22-2.8562-5.9564-5.7798-7.4985l-17.8961-9.4398c-3.1086-1.6397-6.5875-1.8643-9.6993-.9016-3.1117.9625-5.8562 3.1122-7.4959 6.2208l-2.8868 5.4729-2.8868 5.473c-1.6398 3.1086-1.8643 6.5875-.9016 9.6992s3.1124 5.8562 6.221 7.4959z" fill="#77894d" fill-opacity="1" data-original-color="#000000ff" stroke="none" stroke-opacity="1"/><path d="m246.0813 69.9032c7.2963 0 13.211-5.9147 13.211-13.211s-5.9147-13.211-13.211-13.211c-7.2962 0-13.211 5.9147-13.211 13.211s5.9148 13.211 13.211 13.211zm6.0058-19.1574c1.0268-.5928 2.3397-.241 2.9326.7858s.241 2.3398-.7858 2.9326-2.3398.241-2.9326-.7858-.241-2.3397.7858-2.9326zm-.7859 8.9601c.5928-1.0268 1.9058-1.3786 2.9326-.7858s1.3786 1.9058.7858 2.9326-1.9058 1.3786-2.9326.7858c-1.0267-.5928-1.3785-1.9058-.7858-2.9326zm-5.2199-13.3348c1.1857 0 2.1468.9612 2.1468 2.1468 0 1.1857-.9611 2.1468-2.1468 2.1468-1.1856 0-2.1468-.9611-2.1468-2.1468 0-1.1856.9612-2.1468 2.1468-2.1468zm0 8.1743c1.1857 0 2.1468.9611 2.1468 2.1468 0 1.1856-.9611 2.1468-2.1468 2.1468-1.1856 0-2.1468-.9612-2.1468-2.1468 0-1.1857.9612-2.1468 2.1468-2.1468zm0 8.1743c1.1857 0 2.1468.9611 2.1468 2.1468 0 1.1856-.9611 2.1468-2.1468 2.1468-1.1856 0-2.1468-.9612-2.1468-2.1468 0-1.1857.9612-2.1468 2.1468-2.1468zm-8.9383-11.1881c.5928-1.0268 1.9058-1.3785 2.9326-.7858 1.0268.5928 1.3786 1.9058.7858 2.9326s-1.9058 1.3786-2.9326.7858c-1.0269-.5928-1.3787-1.9058-.7858-2.9326zm.7857 7.3886c1.0268-.5928 2.3397-.241 2.9326.7858s.241 2.3398-.7858 2.9326-2.3398.241-2.9326-.7858c-.5928-1.0269-.241-2.3398.7858-2.9326z" fill="#77894d" fill-opacity="1" data-original-color="#000000ff" stroke="none" stroke-opacity="1"/><ellipse cx="123.843" cy="22.502" rx="22.5" ry="22.5" transform="matrix(.972 -.237 .237 .972 -1.804 30.005)" fill="#77894d" fill-opacity="1" data-original-color="#000000ff" stroke="none" stroke-opacity="1"/></g></g></svg>