<svg enable-background="new 0 0 64 64" height="300" viewBox="0 0 64 64" width="300" xmlns="http://www.w3.org/2000/svg" version="1.1" xmlns:xlink="http://www.w3.org/1999/xlink" xmlns:svgjs="http://svgjs.dev/svgjs"><g width="100%" height="100%" transform="matrix(1,0,0,1,0,0)"><g id="Layer_10"><g><path d="m33.8375244 54.0388489h2.8276978c.3634644 0 .6754761.2941284.7457886.7016602l1.1499023 6.6594849 1.1488647-6.6589355c.0703125-.4080811.3823242-.7022095.7457886-.7022095h2.8286743c1.0508423 0 1.9452515-1.7952271 2.2641602-2.8765869h-13.9759522c.3189087 1.0813597 1.2142334 2.8765868 2.2650757 2.8765868z" fill="#77894d" fill-opacity="1" data-original-color="#000000ff" stroke="none" stroke-opacity="1"/><path d="m23.4040527 31.2970886-9.3216552-28.4731445c-.024353-.0745239-.0251465-.1494751-.0263062-.223938l-3.7287598 1.4088745c.0601196.0714111.1103516.1531372.1419678.2471924l10.3627319 30.848938c.4749146-1.5056763 1.3802491-2.8226929 2.5720215-3.8079224z" fill="#77894d" fill-opacity="1" data-original-color="#000000ff" stroke="none" stroke-opacity="1"/><path d="m38.5609131 34.1343689c-4.355957 0-7.8996582 3.5432739-7.8996582 7.8986816 0 4.3554688 3.5437012 7.899231 7.8996582 7.899231 4.3549194 0 7.8986816-3.5437622 7.8986816-7.899231 0-4.3554077-3.5437622-7.8986816-7.8986816-7.8986816z" fill="#77894d" fill-opacity="1" data-original-color="#000000ff" stroke="none" stroke-opacity="1"/><path d="m49.5180054 27.4781799c-1.9699097-1.1984253-4.3598633-1.0894775-7.1072998.3288574-4.6322632 2.3948364-8.5870361 3.8587036-12.8151855 3.2199097-.3040771-.0490723-.6328735-.0723267-1.012207-.0723267-3.6408081 0-6.6022339 2.947998-6.6022339 6.5720215 0 .557251.074585 1.0963745.2036133 1.6138916.0032349.0158081.0087891.0308228.0110474.046814.6744995 2.6235352 2.9077148 4.6206055 5.7210083 4.8944092.494751.0482788.9940796.0795288 1.4810791.1040649-.1628418-.692688-.2578735-1.4110718-.2578735-2.152771 0-5.1942749 4.2261353-9.4199829 9.4209595-9.4199829 5.1937866 0 9.4199829 4.225708 9.4199829 9.4199829 0 .4911499-.0491943.9698486-.1220093 1.440918 3.3225708-1.1478882 5.633728-4.2965088 5.633728-7.8950195-.0000002-2.8222657-1.3648073-6.5111084-3.9746095-8.1007691z" fill="#77894d" fill-opacity="1" data-original-color="#000000ff" stroke="none" stroke-opacity="1"/></g></g></g></svg>